<?xml version="1.0" encoding="UTF-8"?>
<svg width="209px" height="166px" viewBox="0 0 209 166" version="1.1" xmlns="http://www.w3.org/2000/svg" xmlns:xlink="http://www.w3.org/1999/xlink">
    <!-- Generator: Sketch 58 (84663) - https://sketch.com -->
    <title>08- call-center-male-african-american</title>
    <desc>Created with Sketch.</desc>
    <g id="For-Assignee" stroke="none" stroke-width="1" fill="none" fill-rule="evenodd">
        <g id="VOS/1440/assignee/emails/asked_to_re_record/due_date_passed" transform="translate(-216.000000, -239.000000)">
            <g id="Group-3" transform="translate(25.000000, 207.000000)">
                <g id="08--call-center-male-african-american" transform="translate(192.000000, 32.000000)">
                    <path d="M197.974738,95.5880105 C197.974738,42.797142 155.448878,0 102.992639,0 C50.5363993,0 8.01053855,42.797142 8.01053855,95.5880105 C8.01053855,109.651397 11.0523403,123.009821 16.4734437,135.034793 L189.511833,135.034793 C194.930562,123.009821 197.974738,109.651397 197.974738,95.5880105" id="Fill-1" fill="#FFFFFF"></path>
                    <path d="M10.2992639,135.034793 L195.686013,135.034793" id="Stroke-3" stroke="#7C7D7F" stroke-width="1.3" stroke-linecap="round" stroke-linejoin="round"></path>
                    <path d="M0,135.034793 L5.72181325,135.034793" id="Stroke-5" stroke="#7C7D7F" stroke-width="1.3" stroke-linecap="round" stroke-linejoin="round"></path>
                    <path d="M201.407826,135.034793 L207.12964,135.034793" id="Stroke-7" stroke="#7C7D7F" stroke-width="1.3" stroke-linecap="round" stroke-linejoin="round"></path>
                    <path d="M42.3414181,162.499496 C42.3414181,164.394561 61.5547901,165.932584 85.2550174,165.932584 C108.952861,165.932584 128.168617,164.394561 128.168617,162.499496 C128.168617,160.604432 108.952861,159.066408 85.2550174,159.066408 C61.5547901,159.066408 42.3414181,160.604432 42.3414181,162.499496" id="Fill-9" fill="#EBEDEF"></path>
                    <path d="M83.9887804,116.022311 L83.9887804,126.005102 C83.9887804,144.7947 77.3349997,147.381863 69.9513885,147.381863 L64.0843084,147.381863 L64.0843084,160.210771 L69.9513885,160.210771 C80.2803877,160.210771 98.2062603,151.584519 98.2062603,134.552956 L143.704566,134.552956 C143.704566,145.398134 135.730929,147.381863 129.664804,147.381863 L126.64122,147.381863 L123.797724,147.381863 L123.797724,160.210771 L126.64122,160.210771 L129.664804,160.210771 C141.337355,160.210771 157.922046,157.713885 157.922046,134.55058 L157.922046,116.022311 C157.922046,95.5530767 141.370529,78.9610229 120.954228,78.9610229 C100.540297,78.9610229 83.9887804,95.5530767 83.9887804,116.022311 Z" id="Fill-11" fill="#FFD9D9"></path>
                    <path d="M124,159 C136.666667,160.333333 146,158 152,152 C155.532037,148.467963 157.504663,144.336908 157.917879,135.606835 C157.954377,134.835731 157.981751,131.633453 158,126 C152.666667,100.666667 140.333333,88 121,88 C101.666667,88 89.3333333,100.666667 84,126 C88.8888889,137.333333 92.5555556,143 95,143 C97.4444444,143 98.4444444,140 98,134 L144,134 C144,138 143,141 141,143 C137,146.333333 131.333333,147.666667 124,147 L124,159 Z" id="Path-3" fill="#FFB4B4"></path>
                    <path d="M120.954228,78.9610229 C100.540297,78.9610229 83.9887804,95.5530767 83.9887804,116.022311 L83.9887804,126.005102 C83.9887804,144.7947 77.3349997,147.381863 69.9513885,147.381863 L64.0843084,147.381863 L64.0843084,160.210771 L69.9513885,160.210771 C80.2803877,160.210771 98.2062603,152.031563 98.2062603,135 L143.704566,135 C143.704566,145.845178 135.730929,147.381863 129.664804,147.381863 L123.797724,147.381863 L123.797724,160.210771 L129.664804,160.210771 C141.337355,160.210771 157.922046,157.713885 157.922046,134.55058 L157.922046,116.022311 C157.922046,95.5530767 141.370529,78.9610229 120.954228,78.9610229 Z" id="Stroke-13" stroke="#7C7D7F" stroke-width="1.3" stroke-linecap="round" stroke-linejoin="round"></path>
                    <polygon id="Fill-15" fill="#FFFFFF" points="130.14754 80.2325369 121.14504 85.8271988 112.14754 80.2325369 112.14754 73.2392096 130.14754 73.2392096"></polygon>
                    <polygon id="Stroke-17" stroke="#7C7D7F" stroke-linecap="round" stroke-linejoin="round" points="130.14754 80.2325369 121.14504 85.8271988 112.14754 80.2325369 112.14754 73.2392096 130.14754 73.2392096"></polygon>
                    <path d="M121.302441,85.8271988 L114.495185,127.827327 C114.34506,128.748764 114.483457,129.696734 114.891611,130.533745 L117.08016,135.034793 L125.527068,135.034793 L127.713271,130.531333 C128.121425,129.696734 128.259822,128.748764 128.109697,127.827327 L121.302441,85.8271988 Z" id="Stroke-21" stroke="#7C7D7F" stroke-width="1.3" fill="#DBE9F9" stroke-linecap="round" stroke-linejoin="round"></path>
                    <path d="M132.976067,92.8904741 L139.612243,83.6087125 C136.78279,82.0613493 133.724251,80.8984092 130.514614,80.1053855 L121.302441,86.1957104 L129.651886,93.2966569 C130.663276,94.1573777 132.203512,93.9687928 132.976067,92.8904741 Z" id="Stroke-25" stroke="#7C7D7F" stroke-width="1.3" fill="#FFB4B4" stroke-linecap="round" stroke-linejoin="round"></path>
                    <path d="M109.628815,92.8904741 L102.992639,83.6087125 C105.822092,82.0613493 108.88063,80.8984092 112.090268,80.1053855 L121.302441,86.1957104 L112.952996,93.2966569 C111.939169,94.1573777 110.398933,93.9687928 109.628815,92.8904741 Z" id="Stroke-29" stroke="#7C7D7F" stroke-width="1.3" fill="#FFB4B4" stroke-linecap="round" stroke-linejoin="round"></path>
                    <path d="M98.4151879,117.869353 L98.4151879,135.034793" id="Stroke-31" stroke="#7C7D7F" stroke-width="1.3" stroke-linecap="round" stroke-linejoin="round"></path>
                    <path d="M143.5,117.869353 L143.5,135.034793" id="Stroke-33" stroke="#7C7D7F" stroke-width="1.3" stroke-linecap="round" stroke-linejoin="round"></path>
                    <path d="M124,159.443627 L119.714286,159.443627 C116.559524,159.443627 114,156.880731 114,153.721813 C114,150.560511 116.559524,148 119.714286,148 L124,148 L124,159.443627 Z" id="Stroke-37" stroke="#7C7D7F" stroke-width="1.3" stroke-linecap="round" stroke-linejoin="round"></path>
                    <path d="M64.0843084,159.066408 L59.669287,159.066408 C56.4193407,159.066408 53.7850446,156.503513 53.7850446,153.344595 C53.7850446,150.183293 56.4193407,147.622782 59.669287,147.622782 L64.0843084,147.622782 L64.0843084,159.066408 Z" id="Fill-39" fill="#FFFFFF"></path>
                    <path d="M145.620147,41.7147433 C145.620147,28.1572701 134.732013,17.1654398 121.302441,17.1654398 C107.872868,17.1654398 96.9847346,28.1572701 96.9847346,41.7147433 L96.9847346,47.49105 C94.6149503,47.49105 92.6933747,49.4309263 92.6933747,51.82328 L92.6933747,53.2673567 C92.6933747,55.6597104 94.6149503,57.5995867 96.9847346,57.5995867 C97.1206277,57.5995867 97.2469844,57.5707052 97.3804933,57.561078 C99.3926643,69.0679623 109.324779,77.8166602 121.302441,77.8166602 C133.280103,77.8166602 143.209833,69.0679623 145.224388,57.561078 C145.357897,57.5707052 145.484254,57.5995867 145.620147,57.5995867 C147.989932,57.5995867 149.911507,55.6597104 149.911507,53.2673567 L149.911507,51.82328 C149.911507,49.4309263 147.989932,47.49105 145.620147,47.49105 L145.620147,41.7147433 Z" id="Fill-43" stroke="#7C7D7F" stroke-width="1.3" fill="#FFFFFF"></path>
                    <ellipse id="Oval" fill="#F4F4F4" fill-rule="nonzero" cx="106.047957" cy="61.0540098" rx="4.04795734" ry="4.05400982"></ellipse>
                    <ellipse id="Oval-Copy" fill="#F4F4F4" fill-rule="nonzero" cx="137.047957" cy="61.0540098" rx="4.04795734" ry="4.05400982"></ellipse>
                    <path d="M145.620147,47.49105 L145.620147,41.7147433 C145.620147,28.1572701 134.732013,17.1654398 121.302441,17.1654398 C107.872868,17.1654398 96.9847346,28.1572701 96.9847346,41.7147433 L96.9847346,47.49105 C94.6149503,47.49105 92.6933747,49.4309263 92.6933747,51.82328 L92.6933747,53.2673567 C92.6933747,55.6597104 94.6149503,57.5995867 96.9847346,57.5995867 C97.1206277,57.5995867 97.2469844,57.5707052 97.3804933,57.561078 C99.3926643,69.0679623 109.324779,77.8166602 121.302441,77.8166602 C133.280103,77.8166602 143.209833,69.0679623 145.224388,57.561078 C145.357897,57.5707052 145.484254,57.5995867 145.620147,57.5995867 C147.989932,57.5995867 149.911507,55.6597104 149.911507,53.2673567 L149.911507,51.82328 C149.911507,49.4309263 147.989932,47.49105 145.620147,47.49105 Z" id="Stroke-45" stroke="#7C7D7F" stroke-linecap="round" stroke-linejoin="round"></path>
                    <path d="M114.436265,62.9399458 C118.59259,67.5173964 124.012292,67.5173964 128.168617,62.9399458" id="Stroke-51" stroke="#7C7D7F" stroke-width="1.3" stroke-linecap="round" stroke-linejoin="round"></path>
                    <path d="M133.89043,50.3519566 C133.183214,49.0084749 131.940436,48.0632313 130.457342,48.0632313 C128.974248,48.0632313 127.73147,49.0084749 127.024254,50.3519566" id="Stroke-53" stroke="#7C7D7F" stroke-width="1.3" stroke-linecap="round" stroke-linejoin="round"></path>
                    <path d="M115.580628,50.3519566 C114.873412,49.0084749 113.632922,48.0632313 112.14754,48.0632313 C110.664446,48.0632313 109.423957,49.0084749 108.714452,50.3519566" id="Stroke-55" stroke="#7C7D7F" stroke-width="1.3" stroke-linecap="round" stroke-linejoin="round"></path>
                    <path d="M101.769567,51.4963193 C101.769567,51.4963193 103.207865,46.8831073 102.279313,41.3639416 C104.804112,42.2031409 108.949089,38.6222394 108.949089,38.6222394 L108.949089,32.9004262 C108.949089,32.9004262 117.435284,35.7613328 121.872229,35.7613328 C126.311567,35.7613328 134.797762,32.9004262 134.797762,32.9004262 L134.797762,38.6222394 C134.797762,38.6222394 138.945133,42.2031409 141.467538,41.3639416 C140.538987,46.8831073 141.977284,51.4963193 141.977284,51.4963193 C141.977284,48.7069353 144.631314,46.7329097 147.567739,47.5268113 C147.586884,47.5005863 147.601243,47.4672091 147.622782,47.4362159 C147.196797,47.2979388 146.75406,47.2049593 146.284998,47.2049593 L146.284998,41.4831461 C146.284998,28.0535736 135.352979,17.1654398 121.872229,17.1654398 C108.393873,17.1654398 97.4618537,28.0535736 97.4618537,41.4831461 L97.4618537,47.2049593 C96.9927916,47.2049593 96.5476612,47.2979388 96.1264626,47.4362159 C96.145608,47.4672091 96.159967,47.5005863 96.1815056,47.5268113 C99.115537,46.7329097 101.769567,48.7069353 101.769567,51.4963193" id="Fill-57" fill="#FFFFFF"></path>
                    <path d="M101.769567,51.4963193 C101.769567,51.4963193 103.207865,46.8831073 102.279313,41.3639416 C104.804112,42.2031409 108.949089,38.6222394 108.949089,38.6222394 L108.949089,32.9004262 C108.949089,32.9004262 117.435284,35.7613328 121.872229,35.7613328 C126.311567,35.7613328 134.797762,32.9004262 134.797762,32.9004262 L134.797762,38.6222394 C134.797762,38.6222394 138.945133,42.2031409 141.467538,41.3639416 C140.538987,46.8831073 141.977284,51.4963193 141.977284,51.4963193 C141.977284,48.7069353 144.631314,46.7329097 147.567739,47.5268113 C147.586884,47.5005863 147.601243,47.4672091 147.622782,47.4362159 C147.196797,47.2979388 146.75406,47.2049593 146.284998,47.2049593 L146.284998,41.4831461 C146.284998,28.0535736 135.352979,17.1654398 121.872229,17.1654398 C108.393873,17.1654398 97.4618537,28.0535736 97.4618537,41.4831461 L97.4618537,47.2049593 C96.9927916,47.2049593 96.5476612,47.2979388 96.1264626,47.4362159 C96.145608,47.4672091 96.159967,47.5005863 96.1815056,47.5268113 C99.115537,46.7329097 101.769567,48.7069353 101.769567,51.4963193 Z" id="Stroke-59" stroke="#7C7D7F" fill="#7C7D7F" stroke-linecap="round" stroke-linejoin="round"></path>
                    <path d="M98,39.1772921 L98,45 C97.7972376,32.5022306 108.37294,22.9722588 120.934993,21.8745802 C127.433844,21.4441767 132.821399,23.7066698 137.573125,28.1220647 C142.324851,32.5374597 145.014433,38.7096165 145.000115,45.1654119 L145.000115,39.3427039 C145.014433,32.8869085 141.324851,27.7147517 136.573125,23.2993568 C131.821399,18.8839619 128,18 121,18 C115.102941,18.5152881 111.070023,19.4594825 107.410433,22.6703511 C103.274279,26.29935 97.8924213,32.5464047 98,39.1772921 Z" id="Path" fill="#939496" fill-rule="nonzero"></path>
                    <path d="M92.6933747,57.2181325 L92.6933747,61.5094924 C92.6933747,68.6188454 98.2275124,74.3835723 105.052491,74.3835723 L106.425726,74.3835723" id="Stroke-61" stroke="#7C7D7F" stroke-width="1.3" stroke-linecap="round" stroke-linejoin="round"></path>
                    <path d="M90.6,50.3519566 L90.6,43.1467103 C90.6,25.6379617 103.348401,11.4436265 120.729067,11.4436265 C138.112118,11.4436265 152.200232,25.6379617 152.200232,43.1467103 L152.200232,48.9109073" id="Stroke-63" stroke="#7C7D7F" stroke-width="1.3" stroke-linecap="round" stroke-linejoin="round"></path>
                    <path d="M95.9821,60.6512205 L90.6439661,60.6512205 C89.1664667,60.6512205 87.9715614,59.3197545 87.9715614,57.6758776 L87.9715614,48.7498489 C87.9715614,47.1059719 89.1664667,45.774506 90.6439661,45.774506 L95.9821,45.774506 L95.9821,60.6512205 Z" id="Fill-65" stroke="#979797" stroke-width="1.3" fill="#FFFFFF"></path>
                    <path d="M95.9821,60.6512205 L90.6439661,60.6512205 C89.1664667,60.6512205 87.9715614,59.3197545 87.9715614,57.6758776 L87.9715614,48.7498489 C87.9715614,47.1059719 89.1664667,45.774506 90.6439661,45.774506 L95.9821,45.774506 L95.9821,60.6512205 Z" id="Stroke-67" stroke="#7C7D7F" stroke-linecap="round" stroke-linejoin="round"></path>
                    <path d="M92.6933747,57.6758776 C92.6933747,59.3197545 93.9760145,60.6512205 95.5542813,60.6512205 C97.1349322,60.6512205 98.4151879,59.3197545 98.4151879,57.6758776 L98.4151879,48.7498489 C98.4151879,47.1059719 97.1349322,45.774506 95.5542813,45.774506 C93.9760145,45.774506 92.6933747,47.1059719 92.6933747,48.7498489 L92.6933747,57.6758776 Z" id="Fill-69" fill="#7C7D7F"></path>
                    <path d="M92.6933747,57.6758776 C92.6933747,59.3197545 93.9760145,60.6512205 95.5542813,60.6512205 C97.1349322,60.6512205 98.4151879,59.3197545 98.4151879,57.6758776 L98.4151879,48.7498489 C98.4151879,47.1059719 97.1349322,45.774506 95.5542813,45.774506 C93.9760145,45.774506 92.6933747,47.1059719 92.6933747,48.7498489 L92.6933747,57.6758776 Z" id="Stroke-71" stroke="#7C7D7F" stroke-width="1.3" stroke-linecap="round" stroke-linejoin="round"></path>
                    <path d="M146.478419,60.6512205 L151.816553,60.6512205 C153.294052,60.6512205 154.488958,59.3197545 154.488958,57.6758776 L154.488958,48.7498489 C154.488958,47.1059719 153.294052,45.774506 151.816553,45.774506 L146.478419,45.774506 L146.478419,60.6512205 Z" id="Fill-73" fill="#FFFFFF"></path>
                    <path d="M146.478419,60.6512205 L151.816553,60.6512205 C153.294052,60.6512205 154.488958,59.3197545 154.488958,57.6758776 L154.488958,48.7498489 C154.488958,47.1059719 153.294052,45.774506 151.816553,45.774506 L146.478419,45.774506 L146.478419,60.6512205 Z" id="Stroke-75" stroke="#7C7D7F" stroke-width="1.3" stroke-linecap="round" stroke-linejoin="round"></path>
                    <path d="M149.911507,57.6758776 C149.911507,59.3197545 148.630718,60.6512205 147.051793,60.6512205 C145.470483,60.6512205 144.189694,59.3197545 144.189694,57.6758776 L144.189694,48.7498489 C144.189694,47.1059719 145.470483,45.774506 147.051793,45.774506 C148.630718,45.774506 149.911507,47.1059719 149.911507,48.7498489 L149.911507,57.6758776 Z" id="Fill-77" fill="#7C7D7F"></path>
                    <path d="M149.911507,57.6758776 C149.911507,59.3197545 148.630718,60.6512205 147.051793,60.6512205 C145.470483,60.6512205 144.189694,59.3197545 144.189694,57.6758776 L144.189694,48.7498489 C144.189694,47.1059719 145.470483,45.774506 147.051793,45.774506 C148.630718,45.774506 149.911507,47.1059719 149.911507,48.7498489 L149.911507,57.6758776 Z" id="Stroke-79" stroke="#7C7D7F" stroke-width="1.3" stroke-linecap="round" stroke-linejoin="round"></path>
                    <path d="M114.436265,75.5279349 C114.436265,78.0557049 112.643292,80.1053855 110.432108,80.1053855 C108.220924,80.1053855 106.425726,78.0557049 106.425726,75.5279349 C106.425726,73.000165 108.220924,70.9504843 110.432108,70.9504843 C112.643292,70.9504843 114.436265,73.000165 114.436265,75.5279349" id="Fill-81" fill="#7C7D7F"></path>
                    <path d="M114.436265,75.5279349 C114.436265,78.0557049 112.643292,80.1053855 110.432108,80.1053855 C108.220924,80.1053855 106.425726,78.0557049 106.425726,75.5279349 C106.425726,73.000165 108.220924,70.9504843 110.432108,70.9504843 C112.643292,70.9504843 114.436265,73.000165 114.436265,75.5279349 Z" id="Stroke-83" stroke="#7C7D7F" stroke-width="1.3" stroke-linecap="round" stroke-linejoin="round"></path>
                    <path d="M93.2552494,155.488958 L98.5595506,155.488958 L87.229791,120.506604 C86.9142847,119.530868 86.000977,118.869353 84.9738024,118.869353 L81.3941108,118.869353 L93.2552494,155.488958 Z" id="Stroke-87" stroke="#7C7D7F" stroke-width="1.3" fill="#DBE9F9" stroke-linejoin="round"></path>
                    <path d="M48.0632313,155.63332 L97.2708253,155.63332 L97.2708253,161.355134 L52.8639722,161.355134 C50.2139632,161.355134 48.0632313,159.304436 48.0632313,156.777683 L48.0632313,155.63332 Z" id="Fill-91" fill="#DBE9F9"></path>
                    <path d="M48.0632313,155.63332 L94.0632313,155.63332 L94.0632313,161.355134 L52.5510362,161.355134 C50.0737679,161.355134 48.0632313,159.304436 48.0632313,156.777683 L48.0632313,155.63332 Z" id="Stroke-93" stroke="#7C7D7F" stroke-width="1.3" stroke-linejoin="round"></path>
                    <path d="M97.2708253,155.63332 L118.959667,155.63332 C119.62119,155.63332 120.158078,156.145995 120.158078,156.777683 C120.158078,159.304436 118.012923,161.355134 115.364434,161.355134 L97.2708253,161.355134 L97.2708253,155.63332 Z" id="Fill-95" fill="#DBE9F9"></path>
                    <path d="M94.1580783,155.63332 L118.796679,155.63332 C119.548171,155.63332 120.158078,156.145995 120.158078,156.777683 C120.158078,159.304436 117.721174,161.355134 114.712482,161.355134 L94.1580783,161.355134 L94.1580783,155.63332 Z" id="Stroke-97" stroke="#7C7D7F" stroke-width="1.3" stroke-linejoin="round"></path>
                    <path d="M47.5913058,155.488958 L93.8377373,155.488958 L81.979678,118.869353 L38.9918412,118.869353 C38.2329254,118.869353 37.5214418,119.230824 37.0732072,119.840363 C36.6273441,120.452265 36.5016487,121.236633 36.7340667,121.957213 L47.5913058,155.488958 Z" id="Stroke-105" stroke="#7C7D7F" stroke-width="1.3" fill="#DBE9F9" stroke-linejoin="round"></path>
                </g>
            </g>
        </g>
    </g>
</svg>